<svg xmlns="http://www.w3.org/2000/svg" viewBox="0 0 1200 900" width="1200" height="900" role="img" aria-label="巡音流歌占位插画 double-luka">
  <defs>
    <radialGradient id="bg" cx="26%" cy="18%" r="92%">
      <stop offset="0" stop-color="#233240"/><stop offset="1" stop-color="#0b1720"/>
    </radialGradient>
    <linearGradient id="glow" x1="0" y1="0" x2="1" y2="1">
      <stop offset="0" stop-color="#ff7fb0" stop-opacity="0.9"/>
      <stop offset="1" stop-color="#8ad8ff" stop-opacity="0.9"/>
    </linearGradient>
    <linearGradient id="fade" x1="0" y1="0" x2="0" y2="1">
      <stop offset="0" stop-color="#0b1720" stop-opacity="0"/>
      <stop offset="1" stop-color="#0b1720" stop-opacity="0.92"/>
    </linearGradient>
    <radialGradient id="halo" cx="50%" cy="50%" r="50%">
      <stop offset="0" stop-color="#ff7fb0" stop-opacity="0.34"/>
      <stop offset="0.62" stop-color="#8ad8ff" stop-opacity="0.12"/>
      <stop offset="1" stop-color="#8ad8ff" stop-opacity="0"/>
    </radialGradient>
  </defs>

  <rect width="1200" height="900" fill="url(#bg)"/>
  <circle cx="660.3" cy="583.6" r="200.7" fill="#ff7fb0" opacity="0.114"/><circle cx="129.9" cy="510.7" r="130" fill="#8ad8ff" opacity="0.125"/><circle cx="326.1" cy="664.3" r="205.6" fill="#ffffff" opacity="0.095"/><circle cx="374.1" cy="26.6" r="141.5" fill="#ff7fb0" opacity="0.145"/><circle cx="5.6" cy="785" r="179.4" fill="#8ad8ff" opacity="0.143"/><circle cx="1121" cy="247.6" r="120.3" fill="#ffffff" opacity="0.103"/><circle cx="737.5" cy="18.2" r="127.7" fill="#ff7fb0" opacity="0.115"/>
  <g transform="rotate(-18 600 450)">
    <rect x="264" y="-270" width="192" height="1440" fill="#ffffff" opacity="0.07"/>
  </g>
  <g transform="rotate(-18 600 450)">
    <rect x="744" y="-270" width="96" height="1440" fill="#8ad8ff" opacity="0.07"/>
  </g>

  <circle cx="504" cy="396" r="414" fill="url(#halo)"/>
  <circle cx="504" cy="396" r="306" fill="none" stroke="url(#glow)" stroke-width="5.4" opacity="0.5"/>
  <circle cx="504" cy="396" r="360" fill="none" stroke="#ff7fb0" stroke-width="1.2" opacity="0.2" stroke-dasharray="18 27"/>

  <g fill="#8ad8ff" opacity="0.22"><circle cx="111.3" cy="100.7" r="4.3"/><circle cx="163.8" cy="103" r="4.3"/><circle cx="216.5" cy="101.9" r="4.3"/><circle cx="274.4" cy="102.7" r="4.3"/><circle cx="325.6" cy="102.7" r="4.3"/><circle cx="380.5" cy="100.3" r="4.3"/><circle cx="433.5" cy="102.6" r="4.3"/><circle cx="487.7" cy="102" r="4.3"/><circle cx="544.5" cy="100.2" r="4.3"/><circle cx="594.1" cy="102.8" r="4.3"/><circle cx="650.1" cy="100.7" r="4.3"/><circle cx="706.7" cy="104" r="4.3"/><circle cx="756.3" cy="99.3" r="4.3"/><circle cx="812.8" cy="100.5" r="4.3"/><circle cx="865.1" cy="101" r="4.3"/><circle cx="921.7" cy="103" r="4.3"/><circle cx="973.9" cy="100.5" r="4.3"/><circle cx="1029.4" cy="101.5" r="4.3"/><circle cx="1083.5" cy="100.4" r="4.3"/><circle cx="1135.8" cy="101.7" r="4.3"/><circle cx="111.9" cy="144.3" r="4.3"/><circle cx="164.1" cy="143.5" r="4.3"/><circle cx="217.4" cy="143.5" r="4.3"/><circle cx="273.2" cy="144.1" r="4.3"/><circle cx="328.9" cy="142.2" r="4.3"/><circle cx="381.6" cy="143.4" r="4.3"/><circle cx="432.1" cy="140.2" r="4.3"/><circle cx="491" cy="143.6" r="4.3"/><circle cx="544.7" cy="142.6" r="4.3"/><circle cx="594.9" cy="140.3" r="4.3"/><circle cx="652.5" cy="142" r="4.3"/><circle cx="703.3" cy="141.1" r="4.3"/><circle cx="758.1" cy="140.5" r="4.3"/><circle cx="812.1" cy="143.1" r="4.3"/><circle cx="864.7" cy="142.2" r="4.3"/><circle cx="918.7" cy="141.5" r="4.3"/><circle cx="975.5" cy="143.7" r="4.3"/><circle cx="1026.8" cy="143.7" r="4.3"/><circle cx="1083.3" cy="143.4" r="4.3"/><circle cx="1134.5" cy="142.5" r="4.3"/><circle cx="108.8" cy="183.2" r="4.3"/><circle cx="164.8" cy="180.8" r="4.3"/><circle cx="218.5" cy="183.4" r="4.3"/><circle cx="270.3" cy="181.4" r="4.3"/><circle cx="324.5" cy="184.8" r="4.3"/><circle cx="380.3" cy="183.3" r="4.3"/><circle cx="434" cy="182.7" r="4.3"/><circle cx="488" cy="184.7" r="4.3"/><circle cx="542.8" cy="180.4" r="4.3"/><circle cx="598.6" cy="184.9" r="4.3"/><circle cx="649.6" cy="181.4" r="4.3"/><circle cx="705.1" cy="180.7" r="4.3"/><circle cx="756.6" cy="182.8" r="4.3"/><circle cx="812.5" cy="180.5" r="4.3"/><circle cx="865.1" cy="185" r="4.3"/><circle cx="921.5" cy="181.9" r="4.3"/><circle cx="976.6" cy="182.3" r="4.3"/><circle cx="1030.6" cy="181.8" r="4.3"/><circle cx="1083.3" cy="181.6" r="4.3"/><circle cx="1137.7" cy="183.5" r="4.3"/><circle cx="111.2" cy="222.3" r="4.3"/><circle cx="164.7" cy="223.8" r="4.3"/><circle cx="219.2" cy="223.5" r="4.3"/><circle cx="272.4" cy="221.4" r="4.3"/><circle cx="326.8" cy="221.6" r="4.3"/><circle cx="378.5" cy="221.2" r="4.3"/><circle cx="434.2" cy="224.9" r="4.3"/><circle cx="486.4" cy="220.9" r="4.3"/><circle cx="543.2" cy="225.4" r="4.3"/><circle cx="595.6" cy="221" r="4.3"/><circle cx="650.6" cy="224.2" r="4.3"/><circle cx="705.5" cy="220.9" r="4.3"/><circle cx="760.1" cy="221.1" r="4.3"/><circle cx="813.9" cy="221.2" r="4.3"/><circle cx="866.7" cy="225.1" r="4.3"/><circle cx="920.5" cy="225.4" r="4.3"/><circle cx="972.8" cy="224.5" r="4.3"/><circle cx="1029" cy="224.6" r="4.3"/><circle cx="1081.4" cy="224" r="4.3"/><circle cx="1135.5" cy="223.7" r="4.3"/><circle cx="109" cy="261.4" r="4.3"/><circle cx="164.7" cy="263" r="4.3"/><circle cx="220.4" cy="261.8" r="4.3"/><circle cx="273.5" cy="261.8" r="4.3"/><circle cx="325.9" cy="264.6" r="4.3"/><circle cx="381.5" cy="261.7" r="4.3"/><circle cx="436.3" cy="262.4" r="4.3"/><circle cx="490.2" cy="263.8" r="4.3"/><circle cx="542" cy="265.7" r="4.3"/><circle cx="598" cy="264" r="4.3"/><circle cx="650.3" cy="265" r="4.3"/><circle cx="705.6" cy="264.1" r="4.3"/><circle cx="759.8" cy="265.9" r="4.3"/><circle cx="810.3" cy="264.1" r="4.3"/><circle cx="868" cy="265.1" r="4.3"/><circle cx="918.1" cy="261" r="4.3"/><circle cx="973.6" cy="262.7" r="4.3"/><circle cx="1028.2" cy="262.4" r="4.3"/><circle cx="1081.9" cy="263" r="4.3"/><circle cx="1136.7" cy="265.6" r="4.3"/><circle cx="112.8" cy="301.6" r="4.3"/><circle cx="166.1" cy="303.5" r="4.3"/><circle cx="217.6" cy="305.6" r="4.3"/><circle cx="271.1" cy="305.7" r="4.3"/><circle cx="325.1" cy="303.8" r="4.3"/><circle cx="379.4" cy="302.5" r="4.3"/><circle cx="436.9" cy="304.9" r="4.3"/><circle cx="489.2" cy="304.6" r="4.3"/><circle cx="540.4" cy="302.8" r="4.3"/><circle cx="595.9" cy="303.7" r="4.3"/><circle cx="650" cy="305.9" r="4.3"/><circle cx="702.7" cy="301.7" r="4.3"/><circle cx="759.6" cy="305.9" r="4.3"/><circle cx="813.5" cy="304.7" r="4.3"/><circle cx="868.4" cy="303.1" r="4.3"/><circle cx="920.7" cy="303.7" r="4.3"/><circle cx="974.7" cy="306.1" r="4.3"/><circle cx="1026" cy="305.9" r="4.3"/><circle cx="1083.8" cy="304" r="4.3"/><circle cx="1135.6" cy="306.2" r="4.3"/><circle cx="112.4" cy="344" r="4.3"/><circle cx="162.7" cy="345.5" r="4.3"/><circle cx="221" cy="346" r="4.3"/><circle cx="272.1" cy="345.3" r="4.3"/><circle cx="325.3" cy="345.9" r="4.3"/><circle cx="379.3" cy="343.9" r="4.3"/><circle cx="432.2" cy="345.9" r="4.3"/><circle cx="489.2" cy="344.8" r="4.3"/><circle cx="541.3" cy="345.9" r="4.3"/><circle cx="597.8" cy="345.1" r="4.3"/><circle cx="651.2" cy="342.7" r="4.3"/><circle cx="704.8" cy="343.9" r="4.3"/><circle cx="759.6" cy="342.4" r="4.3"/><circle cx="813.6" cy="344" r="4.3"/><circle cx="867.8" cy="344.1" r="4.3"/><circle cx="918.1" cy="346.9" r="4.3"/><circle cx="976.8" cy="345.4" r="4.3"/><circle cx="1030.7" cy="342.8" r="4.3"/><circle cx="1082.9" cy="346" r="4.3"/><circle cx="1134.4" cy="346.6" r="4.3"/><circle cx="112.9" cy="383.9" r="4.3"/><circle cx="164.3" cy="384.8" r="4.3"/><circle cx="218.4" cy="384.3" r="4.3"/><circle cx="274.1" cy="385.1" r="4.3"/><circle cx="327.8" cy="384.2" r="4.3"/><circle cx="382.1" cy="386.3" r="4.3"/><circle cx="432.6" cy="384.8" r="4.3"/><circle cx="487.7" cy="382.6" r="4.3"/><circle cx="543.6" cy="387.1" r="4.3"/><circle cx="597.1" cy="385.5" r="4.3"/><circle cx="651.6" cy="386" r="4.3"/><circle cx="704.9" cy="383.4" r="4.3"/><circle cx="756.4" cy="384.8" r="4.3"/><circle cx="814.5" cy="382.6" r="4.3"/><circle cx="864.7" cy="386.6" r="4.3"/><circle cx="920.9" cy="383.5" r="4.3"/><circle cx="974" cy="384.1" r="4.3"/><circle cx="1030.7" cy="385" r="4.3"/><circle cx="1081.1" cy="384.6" r="4.3"/><circle cx="1136.1" cy="386.9" r="4.3"/><circle cx="108.5" cy="423.1" r="4.3"/><circle cx="165.1" cy="427.4" r="4.3"/><circle cx="216.6" cy="425" r="4.3"/><circle cx="272.5" cy="423.7" r="4.3"/><circle cx="325" cy="425.6" r="4.3"/><circle cx="380" cy="427.8" r="4.3"/><circle cx="435.9" cy="424.5" r="4.3"/><circle cx="489.4" cy="427.1" r="4.3"/><circle cx="544.3" cy="423.4" r="4.3"/><circle cx="598.3" cy="423.2" r="4.3"/><circle cx="649.5" cy="425" r="4.3"/><circle cx="705.7" cy="427.3" r="4.3"/><circle cx="757" cy="423.3" r="4.3"/><circle cx="813.7" cy="423.5" r="4.3"/><circle cx="866.6" cy="426.3" r="4.3"/><circle cx="920.5" cy="426.7" r="4.3"/><circle cx="973" cy="425.7" r="4.3"/><circle cx="1029" cy="423.7" r="4.3"/><circle cx="1083.2" cy="425.4" r="4.3"/><circle cx="1136.7" cy="423.9" r="4.3"/><circle cx="109.9" cy="467.1" r="4.3"/><circle cx="167" cy="467.4" r="4.3"/><circle cx="220.1" cy="464.5" r="4.3"/><circle cx="271.8" cy="464.8" r="4.3"/><circle cx="328.7" cy="463.8" r="4.3"/><circle cx="379.7" cy="464.8" r="4.3"/><circle cx="436.9" cy="466.4" r="4.3"/><circle cx="487.3" cy="467.8" r="4.3"/><circle cx="543.2" cy="465.6" r="4.3"/><circle cx="594.5" cy="467.4" r="4.3"/><circle cx="650.2" cy="467.6" r="4.3"/><circle cx="705.1" cy="464.7" r="4.3"/><circle cx="760.5" cy="467.4" r="4.3"/><circle cx="814" cy="463.7" r="4.3"/><circle cx="868.9" cy="467" r="4.3"/><circle cx="922.5" cy="464" r="4.3"/><circle cx="976.8" cy="468.4" r="4.3"/><circle cx="1028.1" cy="464.5" r="4.3"/><circle cx="1082.7" cy="465.3" r="4.3"/><circle cx="1134.4" cy="468.3" r="4.3"/><circle cx="112.9" cy="504.8" r="4.3"/><circle cx="164.2" cy="504.5" r="4.3"/><circle cx="217.7" cy="508.1" r="4.3"/><circle cx="273.7" cy="507.5" r="4.3"/><circle cx="326" cy="509" r="4.3"/><circle cx="379.8" cy="508" r="4.3"/><circle cx="436" cy="506.6" r="4.3"/><circle cx="489.1" cy="507" r="4.3"/><circle cx="540.8" cy="508.1" r="4.3"/><circle cx="598.7" cy="505.9" r="4.3"/><circle cx="651.5" cy="506.7" r="4.3"/><circle cx="706.2" cy="506.4" r="4.3"/><circle cx="756.9" cy="506.8" r="4.3"/><circle cx="814.3" cy="505" r="4.3"/><circle cx="865.9" cy="507.1" r="4.3"/><circle cx="921.3" cy="506.1" r="4.3"/><circle cx="975.3" cy="505.7" r="4.3"/><circle cx="1030.7" cy="505.6" r="4.3"/><circle cx="1084.2" cy="504.3" r="4.3"/><circle cx="1137.3" cy="506.5" r="4.3"/><circle cx="111.6" cy="545.1" r="4.3"/><circle cx="162.1" cy="546" r="4.3"/><circle cx="216.6" cy="546.4" r="4.3"/><circle cx="273.9" cy="545.2" r="4.3"/><circle cx="328.5" cy="544.5" r="4.3"/><circle cx="379.9" cy="546" r="4.3"/><circle cx="435.2" cy="548.9" r="4.3"/><circle cx="488.9" cy="546.8" r="4.3"/><circle cx="543.9" cy="546.2" r="4.3"/><circle cx="597.1" cy="547.2" r="4.3"/><circle cx="650.6" cy="548.6" r="4.3"/><circle cx="703.6" cy="545.6" r="4.3"/><circle cx="759.3" cy="548.1" r="4.3"/><circle cx="811.3" cy="549.1" r="4.3"/><circle cx="864.9" cy="547.8" r="4.3"/><circle cx="920.2" cy="549.1" r="4.3"/><circle cx="973.9" cy="548.5" r="4.3"/><circle cx="1029.6" cy="545.6" r="4.3"/><circle cx="1083.9" cy="549.3" r="4.3"/><circle cx="1138" cy="545.6" r="4.3"/><circle cx="108.4" cy="589" r="4.3"/><circle cx="162.4" cy="586.5" r="4.3"/><circle cx="220.3" cy="585.4" r="4.3"/><circle cx="270.9" cy="588.7" r="4.3"/><circle cx="324.1" cy="589.7" r="4.3"/><circle cx="378.8" cy="589.2" r="4.3"/><circle cx="436.7" cy="588.7" r="4.3"/><circle cx="489.3" cy="585.3" r="4.3"/><circle cx="543.5" cy="588.4" r="4.3"/><circle cx="596.2" cy="586.7" r="4.3"/><circle cx="649.7" cy="587.5" r="4.3"/><circle cx="703.7" cy="586.2" r="4.3"/><circle cx="759.2" cy="588.8" r="4.3"/><circle cx="811.1" cy="586.8" r="4.3"/><circle cx="868.3" cy="588.8" r="4.3"/><circle cx="921.6" cy="586.7" r="4.3"/><circle cx="975.1" cy="589.6" r="4.3"/><circle cx="1029.3" cy="585.8" r="4.3"/><circle cx="1083.6" cy="589.7" r="4.3"/><circle cx="1137.2" cy="588.1" r="4.3"/><circle cx="111.6" cy="628.9" r="4.3"/><circle cx="162.5" cy="628.3" r="4.3"/><circle cx="217.9" cy="626.2" r="4.3"/><circle cx="273.6" cy="629" r="4.3"/><circle cx="326.4" cy="629.4" r="4.3"/><circle cx="379" cy="626.9" r="4.3"/><circle cx="434.7" cy="629.6" r="4.3"/><circle cx="488.6" cy="626.8" r="4.3"/><circle cx="541.5" cy="627.5" r="4.3"/><circle cx="596.3" cy="627.2" r="4.3"/><circle cx="649.2" cy="626.8" r="4.3"/><circle cx="706.9" cy="625.7" r="4.3"/><circle cx="758.8" cy="626.9" r="4.3"/><circle cx="811.9" cy="625.6" r="4.3"/><circle cx="868.3" cy="629.2" r="4.3"/><circle cx="921.9" cy="630.4" r="4.3"/><circle cx="972.6" cy="628.5" r="4.3"/><circle cx="1026.7" cy="630.4" r="4.3"/><circle cx="1081.6" cy="628.8" r="4.3"/><circle cx="1138.4" cy="630.2" r="4.3"/><circle cx="111.8" cy="669.9" r="4.3"/><circle cx="166.3" cy="669.8" r="4.3"/><circle cx="217.6" cy="667.9" r="4.3"/><circle cx="270.2" cy="668.1" r="4.3"/><circle cx="327.2" cy="670.3" r="4.3"/><circle cx="380.5" cy="668.8" r="4.3"/><circle cx="434.8" cy="670.2" r="4.3"/><circle cx="488.3" cy="670.5" r="4.3"/><circle cx="544.2" cy="670.9" r="4.3"/><circle cx="594.9" cy="667.6" r="4.3"/><circle cx="648.8" cy="667" r="4.3"/><circle cx="703.8" cy="667.4" r="4.3"/><circle cx="756.3" cy="668.1" r="4.3"/><circle cx="810.8" cy="666.9" r="4.3"/><circle cx="864.3" cy="671" r="4.3"/><circle cx="922.7" cy="669.5" r="4.3"/><circle cx="973.4" cy="669.1" r="4.3"/><circle cx="1028" cy="667" r="4.3"/><circle cx="1082" cy="667.8" r="4.3"/><circle cx="1138.1" cy="669.5" r="4.3"/><circle cx="110.4" cy="711.4" r="4.3"/><circle cx="164.6" cy="708.1" r="4.3"/><circle cx="216.9" cy="711" r="4.3"/><circle cx="271.7" cy="709.8" r="4.3"/><circle cx="326.5" cy="708.3" r="4.3"/><circle cx="380.9" cy="710.9" r="4.3"/><circle cx="435.9" cy="708.8" r="4.3"/><circle cx="486.2" cy="709.2" r="4.3"/><circle cx="544.4" cy="709.3" r="4.3"/><circle cx="595.1" cy="707.1" r="4.3"/><circle cx="651" cy="710" r="4.3"/><circle cx="702.2" cy="711.4" r="4.3"/><circle cx="760.1" cy="709" r="4.3"/><circle cx="812.1" cy="707.7" r="4.3"/><circle cx="868.3" cy="708.6" r="4.3"/><circle cx="921.7" cy="709.9" r="4.3"/><circle cx="972.9" cy="707.9" r="4.3"/><circle cx="1030.3" cy="710" r="4.3"/><circle cx="1081.6" cy="710.2" r="4.3"/><circle cx="1135.4" cy="706.9" r="4.3"/><circle cx="110.8" cy="751.6" r="4.3"/><circle cx="165.8" cy="750.9" r="4.3"/><circle cx="216.6" cy="747.9" r="4.3"/><circle cx="271.7" cy="748.8" r="4.3"/><circle cx="325.9" cy="747.8" r="4.3"/><circle cx="380.2" cy="749.6" r="4.3"/><circle cx="435.8" cy="748.8" r="4.3"/><circle cx="489.9" cy="751.2" r="4.3"/><circle cx="540.7" cy="750.9" r="4.3"/><circle cx="595" cy="751.8" r="4.3"/><circle cx="652.9" cy="750.3" r="4.3"/><circle cx="704.6" cy="749.5" r="4.3"/><circle cx="758.8" cy="751.9" r="4.3"/><circle cx="815" cy="750.2" r="4.3"/><circle cx="868.3" cy="750.3" r="4.3"/><circle cx="919.4" cy="747" r="4.3"/><circle cx="972.3" cy="749" r="4.3"/><circle cx="1028.9" cy="749.4" r="4.3"/><circle cx="1084.3" cy="749.1" r="4.3"/><circle cx="1137.5" cy="751.8" r="4.3"/><circle cx="112.8" cy="787.7" r="4.3"/><circle cx="162.7" cy="792.5" r="4.3"/><circle cx="216.4" cy="789.7" r="4.3"/><circle cx="270.5" cy="789.6" r="4.3"/><circle cx="324.2" cy="787.6" r="4.3"/><circle cx="381.1" cy="790.9" r="4.3"/><circle cx="433.6" cy="790.6" r="4.3"/><circle cx="489.7" cy="791.9" r="4.3"/><circle cx="540.1" cy="787.6" r="4.3"/><circle cx="596.8" cy="791.8" r="4.3"/><circle cx="650.5" cy="791.9" r="4.3"/><circle cx="705.7" cy="789.4" r="4.3"/><circle cx="756.3" cy="791" r="4.3"/><circle cx="812.3" cy="791.3" r="4.3"/><circle cx="868.9" cy="791" r="4.3"/><circle cx="920.1" cy="787.8" r="4.3"/><circle cx="974.3" cy="791.3" r="4.3"/><circle cx="1029.7" cy="792.3" r="4.3"/><circle cx="1084.5" cy="789.6" r="4.3"/><circle cx="1135.8" cy="792.2" r="4.3"/><circle cx="109.8" cy="828.1" r="4.3"/><circle cx="163.1" cy="828.5" r="4.3"/><circle cx="219.6" cy="829.6" r="4.3"/><circle cx="274.8" cy="828.6" r="4.3"/><circle cx="326" cy="828.4" r="4.3"/><circle cx="379.6" cy="832.7" r="4.3"/><circle cx="435.7" cy="830.8" r="4.3"/><circle cx="488.3" cy="829" r="4.3"/><circle cx="543.1" cy="832.8" r="4.3"/><circle cx="596.8" cy="831.4" r="4.3"/><circle cx="651.4" cy="828.1" r="4.3"/><circle cx="705.4" cy="828.1" r="4.3"/><circle cx="757.5" cy="830.8" r="4.3"/><circle cx="814.2" cy="831.2" r="4.3"/><circle cx="865.6" cy="831.5" r="4.3"/><circle cx="919.5" cy="831.5" r="4.3"/><circle cx="976.6" cy="831.7" r="4.3"/><circle cx="1027" cy="829.2" r="4.3"/><circle cx="1081.4" cy="829" r="4.3"/><circle cx="1136.7" cy="828.6" r="4.3"/></g>
  <g fill="none" stroke="#8ad8ff" stroke-linecap="round" opacity="0.5"><path d="M-24 590.6 Q 104 587.2 204 614.2 Q 308 588.2 408 615.2 Q 512 575.1 612 602.1 Q 716 554.5 816 581.5 Q 920 542.3 1020 569.3 Q 1124 556.3 1224 583.3" stroke-width="1.7"/><path d="M-24 634.6 Q 104 636.1 204 663.1 Q 308 626.1 408 653.1 Q 512 599.2 612 626.2 Q 716 587.3 816 614.3 Q 920 590.5 1020 617.5 Q 1124 621.5 1224 648.5" stroke-width="2.1"/><path d="M-24 675.2 Q 104 671.4 204 698.4 Q 308 650.5 408 677.5 Q 512 636 612 663 Q 716 636.2 816 663.2 Q 920 652.8 1020 679.8 Q 1124 674.2 1224 701.2" stroke-width="2.6"/><path d="M-24 721.7 Q 104 695.3 204 722.3 Q 308 681 408 708 Q 512 682.8 612 709.8 Q 716 689.1 816 716.1 Q 920 716.8 1020 743.8 Q 1124 726.6 1224 753.6" stroke-width="3"/><path d="M-24 775.6 Q 104 730.3 204 757.3 Q 308 722.3 408 749.3 Q 512 733.5 612 760.5 Q 716 761.8 816 788.8 Q 920 768.8 1020 795.8 Q 1124 764.2 1224 791.2" stroke-width="3.4"/></g>
  <g transform="translate(504 396) rotate(-14)" opacity="0.95">
    <ellipse cx="0" cy="0" rx="68.4" ry="56.1" fill="#ff7fb0"/>
    <rect x="50.6" y="-279" width="23.4" height="291.6" rx="11.7" fill="#ff7fb0"/>
    <path d="M59.5 -279 c 90 39.6 111.6 129.6 54 201.6 c 28.8 -90 3.6 -140.4 -54 -201.6 z" fill="#ff7fb0"/>
  </g><g transform="translate(816.5 285.1) rotate(-14)" opacity="0.75">
    <ellipse cx="0" cy="0" rx="42.4" ry="34.8" fill="#8ad8ff"/>
    <rect x="31.4" y="-173" width="14.5" height="180.8" rx="7.3" fill="#8ad8ff"/>
    <path d="M36.9 -173 c 55.8 24.6 69.2 80.4 33.5 125 c 17.9 -55.8 2.2 -87 -33.5 -125 z" fill="#8ad8ff"/>
  </g><g transform="translate(936 648) rotate(-14)" opacity="0.42">
    <ellipse cx="0" cy="0" rx="30.1" ry="24.7" fill="#ffffff"/>
    <rect x="22.3" y="-122.8" width="10.3" height="128.3" rx="5.1" fill="#ffffff"/>
    <path d="M26.2 -122.8 c 39.6 17.4 49.1 57 23.8 88.7 c 12.7 -39.6 1.6 -61.8 -23.8 -88.7 z" fill="#ffffff"/>
  </g>

  <rect y="558" width="1200" height="342" fill="url(#fade)"/>
  <g opacity="0.14" fill="none" stroke="#ffffff" stroke-width="1.5">
    <rect x="72" y="54" width="1056" height="792" rx="45"/>
  </g>
</svg>
